<svg width="400" height="300" viewBox="0 0 400 300" xmlns="http://www.w3.org/2000/svg">
  <defs>
    <linearGradient id="printerGradient" x1="0%" y1="0%" x2="100%" y2="100%">
      <stop offset="0%" stop-color="#8B5CF6" />
      <stop offset="100%" stop-color="#7C3AED" />
    </linearGradient>
    <linearGradient id="filamentGradient" x1="0%" y1="0%" x2="100%" y2="0%">
      <stop offset="0%" stop-color="#F59E0B" />
      <stop offset="50%" stop-color="#EF4444" />
      <stop offset="100%" stop-color="#EC4899" />
    </linearGradient>
    <linearGradient id="buildPlateGradient" x1="0%" y1="0%" x2="100%" y2="100%">
      <stop offset="0%" stop-color="#6B7280" />
      <stop offset="100%" stop-color="#374151" />
    </linearGradient>
  </defs>
  
  <!-- Background -->
  <rect width="400" height="300" fill="#111827"/>
  
  <!-- 3D Printer Frame -->
  <g stroke="url(#printerGradient)" stroke-width="3" fill="none">
    <!-- Base frame -->
    <rect x="80" y="200" width="240" height="80" rx="5"/>
    <!-- Vertical supports -->
    <line x1="80" y1="200" x2="80" y2="80"/>
    <line x1="320" y1="200" x2="320" y2="80"/>
    <!-- Top frame -->
    <rect x="80" y="80" width="240" height="20" rx="3"/>
  </g>
  
  <!-- Build plate -->
  <rect x="100" y="220" width="200" height="40" rx="3" fill="url(#buildPlateGradient)" stroke="#4B5563" stroke-width="2"/>
  
  <!-- Print head assembly -->
  <g transform="translate(180, 120)">
    <!-- Extruder -->
    <rect x="0" y="0" width="40" height="30" rx="5" fill="url(#printerGradient)" stroke="#8B5CF6" stroke-width="2"/>
    <!-- Hot end -->
    <rect x="15" y="25" width="10" height="15" rx="2" fill="#EF4444"/>
    <!-- Nozzle -->
    <rect x="18" y="35" width="4" height="8" rx="1" fill="#DC2626"/>
  </g>
  
  <!-- Print object being created -->
  <g transform="translate(180, 180)">
    <!-- Base layers -->
    <rect x="0" y="20" width="40" height="4" rx="1" fill="#10B981" opacity="0.8"/>
    <rect x="2" y="16" width="36" height="4" rx="1" fill="#10B981" opacity="0.7"/>
    <rect x="4" y="12" width="32" height="4" rx="1" fill="#10B981" opacity="0.6"/>
    <rect x="6" y="8" width="28" height="4" rx="1" fill="#10B981" opacity="0.5"/>
    <rect x="8" y="4" width="24" height="4" rx="1" fill="#10B981" opacity="0.4"/>
    <rect x="10" y="0" width="20" height="4" rx="1" fill="#10B981" opacity="0.3"/>
  </g>
  
  <!-- Filament spool -->
  <g transform="translate(340, 120)">
    <circle cx="0" cy="0" r="25" fill="none" stroke="url(#filamentGradient)" stroke-width="4"/>
    <circle cx="0" cy="0" r="15" fill="none" stroke="url(#filamentGradient)" stroke-width="2"/>
    <!-- Filament path -->
    <path d="M-25 0 Q-40 -20 -60 -10 Q-80 0 -100 -20" stroke="url(#filamentGradient)" stroke-width="2" fill="none"/>
  </g>
  
  <!-- Control panel -->
  <rect x="90" y="240" width="60" height="30" rx="3" fill="#1F2937" stroke="#374151" stroke-width="1"/>
  <rect x="95" y="245" width="50" height="20" rx="2" fill="#0F172A"/>
  <text x="120" y="257" text-anchor="middle" font-family="monospace" font-size="8" fill="#60A5FA">PRINTING</text>
  
  <!-- Progress indicator -->
  <rect x="160" y="245" width="80" height="6" rx="3" fill="#374151"/>
  <rect x="160" y="245" width="50" height="6" rx="3" fill="#10B981"/>
  <text x="200" y="265" text-anchor="middle" font-family="Arial, sans-serif" font-size="8" fill="#9CA3AF">62% Complete</text>
  
  <!-- Layer lines being printed -->
  <g stroke="#F59E0B" stroke-width="1" fill="none" opacity="0.6">
    <path d="M200 155 Q210 150 220 155">
      <animate attributeName="opacity" values="0;1;0" dur="2s" repeatCount="indefinite"/>
    </path>
  </g>
  
  <!-- Heating indicator -->
  <g transform="translate(200, 140)">
    <circle cx="0" cy="0" r="3" fill="#EF4444">
      <animate attributeName="opacity" values="0.5;1;0.5" dur="1s" repeatCount="indefinite"/>
    </circle>
    <text x="8" y="3" font-family="Arial, sans-serif" font-size="6" fill="#EF4444">210°C</text>
  </g>
  
  <!-- Support structures -->
  <g stroke="#6B7280" stroke-width="1" fill="none" opacity="0.4">
    <line x1="90" y1="120" x2="90" y2="200"/>
    <line x1="310" y1="120" x2="310" y2="200"/>
    <line x1="200" y1="100" x2="200" y2="120"/>
  </g>
  
  <!-- Title -->
  <text x="200" y="30" text-anchor="middle" font-family="Arial, sans-serif" font-size="24" font-weight="bold" fill="url(#printerGradient)">
    3D Prototyping
  </text>
  
  <!-- Subtitle -->
  <text x="200" y="290" text-anchor="middle" font-family="Arial, sans-serif" font-size="14" fill="#A78BFA">
    Rapid Prototyping &amp; Manufacturing
  </text>
</svg>
